<svg width="224" height="46" fill="none" xmlns="http://www.w3.org/2000/svg"><g clip-path="url(#clip0_2_288)"><path d="M17.465 35.434c-3.463 0-6.435-.732-8.918-2.196-2.483-1.496-4.394-3.561-5.733-6.196-1.34-2.667-2.009-5.74-2.009-9.22 0-3.48.67-6.554 2.009-9.222 1.34-2.667 3.25-4.748 5.733-6.244C11.03.859 14.002.11 17.465.11c4.116 0 7.48 1.025 10.094 3.074 2.646 2.017 4.296 4.862 4.949 8.538h-6.909c-.425-1.854-1.34-3.301-2.744-4.342-1.372-1.074-3.201-1.61-5.488-1.61-3.169 0-5.651 1.073-7.448 3.22-1.797 2.146-2.695 5.09-2.695 8.83s.898 6.684 2.695 8.83c1.797 2.115 4.28 3.172 7.448 3.172 2.287 0 4.116-.488 5.488-1.463 1.405-1.009 2.32-2.391 2.744-4.148h6.909c-.653 3.513-2.303 6.262-4.949 8.246-2.613 1.984-5.978 2.976-10.094 2.976zm27.847 0c-2.09 0-3.806-.325-5.145-.976-1.34-.683-2.336-1.578-2.989-2.683-.653-1.106-.98-2.326-.98-3.66 0-2.244.882-4.065 2.646-5.464 1.764-1.398 4.41-2.098 7.938-2.098h6.174v-.585c0-1.659-.474-2.878-1.421-3.66-.947-.78-2.123-1.17-3.528-1.17-1.274 0-2.385.309-3.332.927-.947.585-1.535 1.464-1.764 2.634h-6.125c.163-1.756.751-3.285 1.764-4.586 1.045-1.3 2.385-2.293 4.018-2.976 1.633-.715 3.463-1.073 5.488-1.073 3.463 0 6.19.862 8.183 2.586 1.993 1.724 2.989 4.163 2.989 7.318v14.88h-5.341l-.588-3.903c-.719 1.301-1.731 2.375-3.038 3.22-1.274.846-2.924 1.269-4.949 1.269zm1.421-4.879c1.797 0 3.185-.585 4.165-1.756 1.013-1.171 1.65-2.619 1.911-4.343h-5.341c-1.666 0-2.858.31-3.577.927-.719.586-1.078 1.318-1.078 2.196 0 .943.36 1.675 1.078 2.195.719.52 1.666.781 2.842.781zm27.545 4.879c-2.156 0-4.05-.342-5.684-1.025-1.633-.715-2.94-1.691-3.92-2.927s-1.568-2.667-1.764-4.293h6.321c.196.943.719 1.756 1.568 2.439.882.65 2.01.976 3.381.976 1.372 0 2.368-.277 2.99-.83.653-.553.98-1.187.98-1.902 0-1.041-.458-1.74-1.373-2.098-.915-.39-2.189-.765-3.822-1.122a41.88 41.88 0 01-3.185-.83 16.39 16.39 0 01-2.989-1.22 6.912 6.912 0 01-2.156-1.951c-.555-.813-.833-1.805-.833-2.976 0-2.147.85-3.952 2.548-5.416 1.731-1.463 4.149-2.195 7.252-2.195 2.875 0 5.162.667 6.86 2 1.731 1.334 2.76 3.172 3.087 5.513H77.61c-.36-1.789-1.715-2.683-4.067-2.683-1.176 0-2.09.228-2.744.683-.62.455-.93 1.025-.93 1.708 0 .715.473 1.285 1.42 1.707.948.423 2.205.813 3.773 1.171 1.699.39 3.25.83 4.655 1.317 1.438.456 2.58 1.155 3.43 2.098.85.911 1.274 2.228 1.274 3.952.033 1.496-.36 2.846-1.176 4.05-.817 1.203-1.993 2.146-3.528 2.83-1.535.682-3.348 1.024-5.439 1.024zm24.783-.586c-2.548 0-4.59-.618-6.125-1.854-1.536-1.236-2.303-3.431-2.303-6.586V15.87h-4.165v-5.22h4.165l.735-6.49h5.537v6.49h6.566v5.22h-6.566v10.587c0 1.17.245 1.984.735 2.44.522.422 1.404.633 2.646.633h3.038v5.318h-4.263zm17.194.586c-2.091 0-3.806-.325-5.145-.976-1.34-.683-2.336-1.578-2.989-2.683-.654-1.106-.98-2.326-.98-3.66 0-2.244.882-4.065 2.646-5.464 1.764-1.398 4.41-2.098 7.938-2.098h6.174v-.585c0-1.659-.474-2.878-1.421-3.66-.948-.78-2.124-1.17-3.528-1.17-1.274 0-2.385.309-3.332.927-.948.585-1.536 1.464-1.764 2.634h-6.125c.163-1.756.751-3.285 1.764-4.586 1.045-1.3 2.384-2.293 4.018-2.976 1.633-.715 3.462-1.073 5.488-1.073 3.462 0 6.19.862 8.183 2.586 1.992 1.724 2.989 4.163 2.989 7.318v14.88h-5.341l-.588-3.903c-.719 1.301-1.732 2.375-3.038 3.22-1.274.846-2.924 1.269-4.949 1.269zm1.421-4.879c1.796 0 3.185-.585 4.165-1.756 1.012-1.171 1.649-2.619 1.911-4.343h-5.341c-1.666 0-2.859.31-3.577.927-.719.586-1.078 1.318-1.078 2.196 0 .943.359 1.675 1.078 2.195.718.52 1.666.781 2.842.781zm22.014 4.293l-7.105-24.198h6.223l4.213 17.417 4.9-17.418h6.958l4.9 17.418 4.263-17.418h6.223l-7.154 24.2h-6.517L151.4 16.747l-5.194 18.1h-6.516zm40.687.586c-2.09 0-3.805-.325-5.145-.976-1.338-.683-2.335-1.578-2.989-2.683-.652-1.106-.98-2.326-.98-3.66 0-2.244.882-4.065 2.646-5.464 1.764-1.398 4.41-2.098 7.938-2.098h6.174v-.585c0-1.659-.473-2.878-1.421-3.66-.946-.78-2.122-1.17-3.528-1.17-1.274 0-2.384.309-3.332.927-.946.585-1.534 1.464-1.764 2.634h-6.125c.164-1.756.752-3.285 1.764-4.586 1.046-1.3 2.386-2.293 4.018-2.976 1.634-.715 3.464-1.073 5.488-1.073 3.464 0 6.191.862 8.183 2.586 1.994 1.724 2.989 4.163 2.989 7.318v14.88h-5.341l-.588-3.903c-.718 1.301-1.73 2.375-3.038 3.22-1.274.846-2.923 1.269-4.949 1.269zm1.421-4.879c1.798 0 3.185-.585 4.165-1.756 1.014-1.171 1.651-2.619 1.911-4.343h-5.341c-1.666 0-2.857.31-3.577.927-.718.586-1.078 1.318-1.078 2.196 0 .943.36 1.675 1.078 2.195.72.52 1.666.781 2.842.781zm19.725 15.027l5.635-12.344h-1.47l-9.457-22.588h6.811l6.811 17.026 7.105-17.026h6.664l-15.435 34.932h-6.664z" fill="#fff"/></g><defs><clipPath id="clip0_2_288"><path fill="#fff" d="M0 0h224v46H0z"/></clipPath></defs></svg>